<svg width="69" height="66" fill="none" xmlns="http://www.w3.org/2000/svg" >
<g clip-path="url(#clip0_80_4778)">
<path d="M40.2329 22.396C43.7747 20.6152 46.0222 16.6969 46.0222 12.1885C46.0222 8.40107 44.6947 5.28852 42.1806 3.18697C39.6871 1.10081 36.0121 0 31.5477 0H7.20907V24.6259H15.7226L0.0358788 51.225L0 51.284V53.832H7.20907V53.8397H25.3971V65.846H29.0311V53.8397H31.3837C43.8618 53.8397 51.6116 47.5607 51.6116 37.4533C51.6116 29.4679 45.8813 23.874 40.2329 22.396ZM25.3996 36.119V50.3654H7.20907V50.4398H4.6463L19.8692 24.6233H33.6825C41.6425 24.6233 47.647 30.1736 47.647 37.5354C47.647 45.4489 41.3836 50.3654 31.2991 50.3654H29.0285V36.119H25.3945H25.3996ZM33.357 21.1489H21.9194L26.8245 12.83L23.7569 11.0056L17.7728 21.1489H11.0097V3.47436H31.5477C38.2289 3.47436 42.0602 6.71008 42.0602 12.3553C42.0602 17.5335 38.48 21.1515 33.357 21.1515V21.1489Z" fill="#3465C9"/>
<path d="M47.2754 62.5025C47.7598 62.2767 48.0981 61.7353 48.0878 61.1631C48.075 60.596 47.8572 60.1316 47.4548 59.8159C47.0499 59.5003 46.4553 59.3387 45.7531 59.3566L43.0571 59.4157L43.1955 65.9359V66L46.135 65.9384C46.8551 65.923 47.4497 65.7357 47.8546 65.3944C48.257 65.0557 48.4646 64.5733 48.4517 64.0037C48.4364 63.2903 47.9725 62.7104 47.2754 62.5051V62.5025ZM44.0463 60.2547L45.7455 60.2188C46.1734 60.2111 46.5143 60.2881 46.7501 60.4549C46.9781 60.6191 47.0986 60.8629 47.1063 61.1811C47.1191 61.82 46.6527 62.1844 45.7916 62.2023L44.0925 62.2383L44.0515 60.2547H44.0463ZM44.1489 65.1173L44.1053 63.0671L46.0479 63.026C46.4861 63.0183 46.8423 63.1004 47.0858 63.2698C47.3344 63.4417 47.4625 63.6932 47.4702 64.0191C47.4779 64.3449 47.3574 64.6041 47.1191 64.7863C46.8808 64.9659 46.5271 65.066 46.0914 65.0737L44.1489 65.1147V65.1173Z" fill="#3465C9"/>
<path d="M54.7485 59.236C54.0873 59.5132 53.7439 60.0161 53.6234 60.4344L52.6188 58.0275L51.7372 58.397L54.3512 64.6606L55.2328 64.291L54.2897 62.0304C53.9566 61.2298 54.2282 60.3779 54.9125 60.0905C55.5788 59.8134 56.1554 60.1162 56.4912 60.9245L57.5009 63.3416L58.385 62.9721L57.3189 60.419C56.8371 59.2668 55.8043 58.7896 54.7459 59.2335L54.7485 59.236Z" fill="#3465C9"/>
<path d="M62.9135 57.0421L62.2061 57.7118L62.2189 57.7503C62.3573 58.1404 62.1728 58.6664 61.7602 59.0564C61.2246 59.5645 60.4763 59.585 59.8766 59.1206L62.6008 56.534L62.57 56.4904C62.506 56.398 62.4265 56.3134 62.3573 56.2389L62.3445 56.2261C61.8704 55.7257 61.2656 55.4307 60.6428 55.3973C60.015 55.3639 59.4025 55.5975 58.9207 56.0568C58.4363 56.5161 58.1698 57.1165 58.1698 57.7478C58.1698 58.3739 58.4286 58.9948 58.9027 59.4952C59.4255 60.0495 60.0765 60.3291 60.7223 60.3291C61.2963 60.3291 61.8627 60.1085 62.3343 59.662C63.0954 58.9384 63.344 57.9171 62.9545 57.1217L62.916 57.0447L62.9135 57.0421ZM59.323 58.5355C58.8822 57.9017 58.9412 57.1704 59.487 56.6546C59.7715 56.3852 60.1072 56.2492 60.4506 56.2492C60.7633 56.2492 61.0836 56.3621 61.3758 56.5854L59.323 58.533V58.5355Z" fill="#3465C9"/>
<path d="M63.203 51.4303C63.3209 51.2019 63.4593 51.0248 63.6157 50.9017L63.6925 50.8401L62.8622 50.4116L62.8289 50.4424C62.7007 50.5655 62.588 50.7246 62.4547 50.9812C62.0985 51.6663 62.1523 52.3053 62.3266 52.7133L61.8192 52.4515L61.3784 53.3009L65.5813 55.4794L66.0221 54.6301L63.8489 53.5036C63.18 53.1572 62.7546 52.2873 63.1979 51.4303H63.203Z" fill="#3465C9"/>
<path d="M67.5162 46.0956L67.4419 46.0519L67.224 47.0039L67.2574 47.0296C67.588 47.2785 67.7263 47.8173 67.5982 48.3716C67.4342 49.0901 66.8217 49.5289 66.0657 49.4698L66.9011 45.8056L66.8499 45.7851C66.7422 45.744 66.6269 45.7158 66.5142 45.6901C65.1123 45.372 63.8745 46.111 63.5695 47.4504C63.4209 48.0996 63.5311 48.7488 63.8822 49.2748C64.2282 49.7983 64.7894 50.1704 65.4609 50.3218C65.6787 50.3705 65.894 50.3962 66.1015 50.3962C67.2266 50.3962 68.1518 49.688 68.4106 48.5538C68.6438 47.53 68.285 46.542 67.5188 46.0956H67.5162ZM65.9119 46.5292L65.284 49.2902C64.5664 49.0105 64.2102 48.369 64.3794 47.6352C64.5357 46.9449 65.079 46.5241 65.7889 46.5241C65.8299 46.5241 65.8709 46.5241 65.9145 46.5292H65.9119Z" fill="#3465C9"/>
<path d="M67.4419 37.2762L63.1672 37.3994L63.1979 38.4951L67.588 41.4537L67.6059 41.4639L68.4055 41.4408L68.3132 38.182L69.7714 38.141L69.7432 37.207L68.285 37.248L68.2543 36.1908L67.4086 36.2165L67.4393 37.2737L67.4419 37.2762ZM67.5316 40.4093L64.3819 38.3001L67.4675 38.2103L67.5316 40.4093Z" fill="#3465C9"/>
<path d="M63.6413 27.3304C64.1948 27.0379 64.7433 26.9481 65.2251 27.0687C65.712 27.1919 66.1118 27.5254 66.3809 28.0361C66.9293 29.0804 66.5603 30.1017 65.4173 30.7047L62.1113 32.447L62.5649 33.3092L65.8709 31.5669C66.6551 31.1538 67.1958 30.561 67.4291 29.8579C67.6648 29.1523 67.5777 28.3748 67.1779 27.6153C66.3655 26.068 64.7971 25.6163 63.1877 26.4657L59.8817 28.208L60.3353 29.0702L63.6413 27.3279V27.3304Z" fill="#3465C9"/>
</g>
<defs>
<clipPath id="clip0_80_4778">
<rect width="69.7714" height="66" fill="white"/>
</clipPath>
</defs>
</svg>
